<?xml version="1.0" standalone="no"?>
<!DOCTYPE svg PUBLIC "-//W3C//DTD SVG 20010904//EN"
 "http://www.w3.org/TR/2001/REC-SVG-20010904/DTD/svg10.dtd">
<svg version="1.0" xmlns="http://www.w3.org/2000/svg"
 width="122.000000pt" height="27.000000pt" viewBox="0 0 122.000000 27.000000"
 preserveAspectRatio="xMidYMid meet">

<g transform="translate(0.000000,27.000000) scale(0.100000,-0.100000)"
fill="#000000" stroke="none">
<path d="M122 238 c-9 -9 -5 -15 18 -24 l30 -13 0 -96 0 -95 35 0 c34 0 35 1
24 22 -8 14 -9 47 -5 100 6 70 4 80 -14 98 -22 22 -69 27 -88 8z"/>
<path d="M74 59 c-18 -20 -18 -21 6 -39 25 -19 25 -18 48 3 l23 22 -21 17
c-28 23 -33 23 -56 -3z"/>
</g>
</svg>
